<?xml version="1.0" encoding="UTF-8"?>
<svg viewBox="0 0 1106 600" xmlns="http://www.w3.org/2000/svg">
<g stroke="#646464" id="peta_utama" fill="#E0E0E0" stroke-width="1.4173">
<path class="Kab06 _data0" d="m1018.4 92.422 7.414-0.374 6.742-4.069 6.734 2.85 7.248-1.88 9.381 0.178 0.967 3.3 1.646 0.759 0.344 3.823 5.006 7.584-2.329 8.071 2.137 5.852-3.27 3.521-9.984 2.865-8.256-0.528-21.317 1.786-17.648 6.474-12.009 0.155-10.154-2.031-11.325 7.135-7.576 1.676-4.587-3.76-4.367-0.313-13.001 7.074-0.129-3.612-9.604 0.66-4.254-3.733 0.731-4.96 9.981-11.14 1.623-5.485 3.76-0.91 2.624-3.216 4.848-2.699 3.93-0.34 1.51 1.223 9.962-7.085-1.778-0.797-2.51 1.854-1.234-1.136-4.866 0.498-1.099 1.771-15.783 8.021-1.034-9.947 8.886-12.182 4.021-3.126 5.014 0.445 3.737-1.808 2.106 1.026 10.377-0.849 0.838 0.476-1.906 2.827-0.358 7.165 3.047 2.159 9.966-6.146 10.057-0.925 4.326-1.695 5.508 0.261 5.262 2.843 10.645 0.414" fill="#FFF" stroke-linecap="square" stroke-linejoin="bevel" stroke-width=".85">
<title>Alor</title>
</path>
<path class="Kab06 _data0" d="m932.7 99.254-0.113 3.239-2.072-0.532 1.012-3.511 1.173 0.804" fill="#FFF" stroke-linecap="square" stroke-linejoin="bevel" stroke-width=".85">
<title>Alor</title>
</path>
<path class="Kab06 _data0" d="m929.45 84.376 2.823 1.902 0.14 3.19-1.985 3.201-5.575-0.162-2.413-4.772 3.862-3.442 3.148 0.083" fill="#FFF" stroke-linecap="square" stroke-linejoin="bevel" stroke-width=".85">
<title>Alor</title>
</path>
<path class="Kab06 _data0" d="m933.35 95.091-1.668-0.091 0.2562 0.163 2.27 1.283-0.858 0.971" fill="#FFF" stroke-linecap="square" stroke-linejoin="bevel" stroke-width=".85">
<title>Alor</title>
</path>
<path class="Kab06 _data0" d="m896.83 117.37 0.431-3.774 3.152-2.956 2.774 0.016 4.591-9.981 3.627-3.885 4.938-2.952 4.556 0.095 2.806 1.525 0.565 7.448-4.699 6.866 1.857 7.301-1.4 3.413-9.295 5.311-6.504 9.374 0.445 7.651-3.691 4.485-2.93-0.026-0.554 3.982-4.84 4.794-12.076 2.088-2.635-1.114-0.283-3.74 1.978-5.259-1.725-2.254-0.186-4.096-2.865-0.502-0.785-5.35-8.505-0.075-6.837 7.078-5.171-3.745 5.508-5.405-0.212-2.971 3.605-7.347 7.048-3.103 8.074-5.852 1.23-0.328 4.153 3.495 0.128 7.837 1.816-0.298-1.005 2.562 2.745 1.05 0.124 2.375 2.171-1.873-0.162-1.514-2.141-0.012-0.317-2.186 4.787-2.627 3.348-4.488 2.361-1.033" fill="#FFF" stroke-linecap="square" stroke-linejoin="bevel" stroke-width=".85">
<title>Alor</title>
</path>
<path class="Kab06 _data0" d="m917.65 144.33 0.993 2.042-2.616 1.449-1.064-3.023 2.687-0.468" fill="#FFF" stroke-linecap="square" stroke-linejoin="bevel" stroke-width=".85">
<title>Alor</title>
</path>
<path class="Kab06 _data0" d="m876.21 100.05-1.257 2.733-1.951 0.819 0.883-3.364 1.02 1.487 1.305-1.675" fill="#FFF" stroke-linecap="square" stroke-linejoin="bevel" stroke-width=".85">
<title>Alor</title>
</path>
<path class="Kab06 _data0" d="m883.7 102.05 0.895 0.77-1.068 1.598-3.039-0.212 0.918-2.004 2.294-0.152" fill="#FFF" stroke-linecap="square" stroke-linejoin="bevel" stroke-width=".85">
<title>Alor</title>
</path>
<path class="Kab06 _data0" d="m860.69 123.73-3.703 5.459-2.975 0.15-2.771-2.034 1.903-2.337 7.546-1.238" fill="#FFF" stroke-linecap="square" stroke-linejoin="bevel" stroke-width=".85">
<title>Alor</title>
</path>
<path class="Kab06 _data0" d="m839.36 126.95 1.094 7.07-1.883 0.936-2.802-2.042-0.347-5.119 1.324-1.182 2.614 0.337" fill="#FFF" stroke-linecap="square" stroke-linejoin="bevel" stroke-width=".85">
<title>Alor</title>
</path>
<path class="Kab06 _data0" d="m850.1 137.57-2.114 2.228-1.302-2.103 2.054-1.088 1.362 0.963" fill="#FFF" stroke-linecap="square" stroke-linejoin="bevel" stroke-width=".85">
<title>Alor</title>
</path>
<path class="Kab06 _data0" d="m973.87 83.81 0.234 0.838-1.725-0.219 1.491-0.619" fill="#FFF" stroke-linecap="square" stroke-linejoin="bevel" stroke-width=".85">
<title>Alor</title>
</path>
<path class="Kab07 _data3" d="m714.45 132.78-3.787-0.068-2.189 1.729-2.178-2.353-4.341 0.261-4.028 2.155-1.333-1.974 0.34-5.497 5.704-10.362 8.132-5.595 5.028-1.767 5.662-5.409 6.821 1.147 2.45-2.691 2.408-0.109 0.34 2.54 1.442 0.868 3.892-3.159 5.603 4.266 0.551-1.14 1.778 1.178 1.959-0.755 5.613 3.084-1.797 3.507-3.141 2.023 0.461 10.921-2.239 4.764-11.019 1.397-2.193-1.552-6.588-0.362-2.064 1.103-6.479-0.14-4.808 1.99" fill="#FFF" stroke-linecap="square" stroke-linejoin="bevel" stroke-width=".85">
<title>Flores Timur</title>
</path>
<path class="Kab07 _data3" d="m695.17 150.15-6.014 8.369 0.038 2.442-2.956 4.935-4.259 2.649-4.363-0.347-2.688-4.232 2.08-9.562 3.266-3.009 7.52-3.054 1.228-5.655 4.13-4.145 3.234-0.22 4.409 2.383 2.733-2.25 13.522 0.071 4.503-2.216 4.398 2.224-3.394 4.387-7.573 1.781-4.387 2.885-4.873 0.547-4.775-2.673-5.779 4.69" fill="#FFF" stroke-linecap="square" stroke-linejoin="bevel" stroke-width=".85">
<title>Flores Timur</title>
</path>
<path class="Kab07 _data3" d="m668.15 138.18-7.796-2.092 0.204 4.367-1.31 1.718 1.975 4.662 8.184 7.743 1.103 5.685-2.118 4.436-8.938 4.115-4.745-1.363-2.575 0.615-1.997 4.277-8.252-1.925-3.975 2.57-0.985-1.623 1.238-11.189 1.574-7.319 3.767-5.979-2.299-4.277 1.933-3.605-1.4-4.341 0.975-5.142 7.138-3.926 7.195 0.483 3.953-7.98 3.782-3.201 12.163-1.566 1.944-2.017 3.228-10.188 4.696-3.054-0.344-1.22-3.311 0.23-3.017-3.084-5.935 0.045-1.781 2.023-1.48-1.14-2.352 1.993-4.152 0.906-3.646 6.379-4.356-1.808-1.155 0.876-4.247-0.91 0.242-1.574 4.662-3.654 0.407-2.767 3.952-4.753-1.136-2.42 0.751-4.854 8.233-1.959 2.567-2.964-0.25-1.525 1.11 0.819 2.714-1.993 4.266 4.085 13.824 7.833-0.585 9.124-2.054 1.729 3.903 3.213 0.578 6.169 6.073 5.187 0.39 5.824-6.475 5.459-3.152 0.801-6.059-4.089-2.604 0.057-6.078 9.593 2.072 3.401-0.166 7.293-5.024 1.004-5.047-3.213" fill="#FFF" stroke-linecap="square" stroke-linejoin="bevel" stroke-width=".85">
<title>Flores Timur</title>
</path>
<path class="Kab07 _data3" d="m663.26 140.35 0.279 1.265-1.344 0.612-0.302-1.495 1.367-0.382" fill="#FFF" stroke-linecap="square" stroke-linejoin="bevel" stroke-width=".85">
<title>Flores Timur</title>
</path>
<path class="Kab01 _data5" d="m876.01 292.75 0.192 1.902 8.543 9.773v2.189l8.116 4.647 0.377 1.431 1.778-0.699 1.888 1.155 3.944 4.466 1.031 3.79-1.703 1.317-7.062-6.146-3.806-0.543-0.755 1.091 6.368 10.249 0.506 3.05-1.831 1.499-4.608-2.092-4.277 4.704-2.934 1.083 2.017 4.451-0.819 3.156 4.413 9.339-1.035 3.337-2.518 1.408-0.438 3.877-3.462 3.899 4.567 8.592-1.544 3.602 1.197 8.656-1.801 7.339 0.725 7.149 2.008 1.975 4.734-0.095 6.837 7.157-3.398-0.094-0.426 1.076 1.483 2.91 2.131 0.524 7.572 7.188-1.487 2.673 2.756 3.092-1.597 2.197 2.208-0.249-0.766 1.88 1.906 0.396 0.23 2.08-1.193 1.182-8.422-1.258-6.131 1.341-5.783 2.771-3.556 4.273 0.419 2.284-8.316 4.832-2.681 4.665-9.645 0.612-3.409 3.458-4.64 0.09-6.727 3.557-1.982 2.473-11.344 3.857-5.557-1.279-10.649 3.167-8.26-2.854-4.972 1.075-2.556 2.432-7.244-6.323-4.488-0.951-9.762 4.816-4.7 0.287 0.743-5.277 5.395-5.674-0.668-0.797 1.805-2.574-2.031-4.273-0.019-4.266 6.474-1.303 2.193 1.412 1.22 7.912 5.474-5.783 2.74 0.306-2.435 3.043 1.216 6.085 2.435 2.737 6.999-2.435-0.914-5.474-1.826-2.436 0.611-1.521 1.521-1.219 4.383 0.57-2.699-2.458 6.225-3.586 0.306-1.521-2.129-3.956 1.216-1.827-1.566-5.364 6.545-3.79 5.271-0.892 5.055-9.43-3.027-2.465-5.297-0.344-4.33-2.876-2.861 1.842-4.522-1.967-5.451 1.688-2.431 4.417h-1.525l-3.133-4.64 1.34-4.308-1.755-8.554 1.181-1.133-0.302-3.412 2.986-3.115 2.809 0.427 0.684-1.774 1.856 1.291 1.608-0.559 4.534-7.002-0.438-8.958-3.967-4.723 5.696-2.828 0.978-2.389 0.494-7.173-2.234-9.415 0.498-3.096 8.079-6.19 2.22-4.342 9.135-4.288 1.272-8.751 5.568 0.88 3.507-3.495 4.039-0.147 3.844-3.428 1.147-4.387 5.911-1.431 1.144-4.062 3.775-1.93 2.851-5.779 2.438-1.695 6.062 0.506 2.415-1.492" fill="#FFF" stroke-linecap="square" stroke-linejoin="bevel" stroke-width=".85">
<title>Kupang</title>
</path>
<path class="Kab01 _data5" d="m774.64 426.06 2.809 8.074 1.869 0.382 1.608-1.774 1.925 0.694 0.864 3.507-7.58 2.986-1.498 3.764-4.184 2.189-1.868-0.279 0.646-3.519-5.149-0.128-0.132 3.197 3.752 2.556 1.118 3.201-1.914 1.435 2.147 4.802-4.922-0.642 1.449 2.525 2.624 1.159-1.076 3.62-4.496 0.37-1.046-5.002-5.059-0.479-3.023 5.591-1.295 0.17-2.767-4.632 0.672-5.082-1.442-1.863 3.329-5.364 4.908-2.228 3.238-3.971 4.862-11.914 9.631-3.345" fill="#FFF" stroke-linecap="square" stroke-linejoin="bevel" stroke-width=".85">
<title>Kupang</title>
</path>
<path class="Kab01 _data5" d="m771.26 446.24 1.352 1.382-1.37 1.174-0.997-1.574 1.015-0.982" fill="#FFF" stroke-linecap="square" stroke-linejoin="bevel" stroke-width=".85">
<title>Kupang</title>
</path>
<path class="Kab16 _data9" d="m250.41 137.16 1.253 5.651-1.536-0.438-0.136 4.595-1.499 0.51-1.39 4.545-3.442 1.657 1.525 7.527-3.024 0.528-2.291-2.159-2.586 4.122-4.148 1.329-1.487 3.22-0.283 2.741 1.653 2.016-1.778 1.823 2.907 4.142 1.581 0.536 1.155-1.284 3.168 3.439-0.774 5.119-2.114 1.045-3.571 5.587-3.521 0.627 1.831 4.662-7.479 2.685-1.23 1.653 1.219 2.997-1.997 1.963-2.566-0.88-7.894-8.131-3.201-0.714-22.639 5.919-8.049 1.163-4.669-0.804-2.907 2-0.381 1.79-2.242-0.789 2.072 3.828-2.786 0.992-3.375-2.608 1.578-1.344-2.088-1.763 1.238-3.59-3.492-0.906-1.265 1.079-0.441-1.989-2.08 0.4-0.611-1.291-1.854 1.649-0.653-3.28-1.593 0.208 0.237-1.673-3.174-1.415-0.582-1.861 1.544-1.477-2.137-1.664 1.94-1.378-1.854-0.971 1.137-3.133-1.311-3.058 2.673-3.976-0.045-10.963-2.193-0.978 1.672-2.231-0.672-2.095 4.579-3.835 0.435-1.979 5.945-2.657 1.948-4.376-0.785-1.483 1.113-2.117-1.706-3.436-1.801-0.691-0.559-4.005 3.847-0.494-0.468 2.718 2.216 0.015-2.216 2.729 4.035 1.144 1.136 1.703 4.312-3.217 4.979-1.049-0.861-1.22 2.175-2.653 1.257 0.763-0.528 2.216 1.412-0.461 0.351 1.925 2.307 1.262 3.567-3.707-2.635-1.544-0.857-2.303 3.005-0.718-0.683-2.344 1.321-2.602 4.062 0.328-1.02 1.009 1.046 0.958 5.437-3.518-2.552 3.714-1.899 0.046 0.212 1.087 6.251-3.02-1.593 3.934 1.295-0.461-0.846 1.008 1.079 0.099 1.242-1.288 0.468 1.084-2.382 2.242 0.491 1.892 4.235 0.687 2.703-4.058-1.566-2.333 0.86-8.173 1.695 1.85 2.665-0.012 0.045 2.197 1.778-1.17 0.936 0.846 0.016-2.711 1.518-2.397 2.284-0.037-0.363-1.876 2.968-5.364 2.643 0.747 4.096-1.412 3.628-3.254 5.229-0.351-1.291 24.307 3.812 4.927 3.525-2.488 1.11 0.627 2.144-2.465 7.855 0.311m-68.898 50.267 1.03 0.944 0.943-0.88-0.943 0.88-1.03-0.944" fill="#FFF" stroke-linecap="square" stroke-linejoin="bevel" stroke-width=".85">
<title>Manggarai Barat</title>
</path>
<path class="Kab16 _data9" d="m124.22 198.2 2.092 2.503 0.012 3.046-2.466-0.37-0.32-1.815-3.496 0.524 4.178-3.888" fill="#FFF" stroke-linecap="square" stroke-linejoin="bevel" stroke-width=".85">
<title>Manggarai Barat</title>
</path>
<path class="Kab16 _data9" d="m110.06 181.35-0.573 1.23-0.688-1.14 1.261-0.09" fill="#FFF" stroke-linecap="square" stroke-linejoin="bevel" stroke-width=".85">
<title>Manggarai Barat</title>
</path>
<path class="Kab16 _data9" d="m120.75 167.55 4.806 1.216-0.74 7.621 1.582 0.896-1.186 0.257 2.197 4.133 0.672-2.54 1.325 0.4 0.067 1.634 0.819-1.676 3.031-0.895 0.238-1.831-3.812-3.371 4.076 1.057 0.593 1.748 0.714-5.889 3.401-0.102 0.925 1.302 1.521-1.789 6.779-0.664 2.152 1.925-1.027 5.429-7.108 1.435-2.144 5.681-3.304 0.144-0.105-2.465-2.428-0.959-0.268 3.024-3.322 4.462 1.363 1.721 4.367 1.228 1.733 2.793-2.786-0.12-0.113 1.358 2.88 0.502-1.275 0.076 0.472 1.4-2.884 0.559 1.336 1.566-4.436 3.881-3.106-0.265-0.11-3.598-2.688-2.544-3.189 0.476-3.889 3.114-1.109-3.114 0.943-2.054-2.321-1.615 1.664-1.163-1.279-2.438 4.741 1.419-3.05-2.884 3.658-0.022-2.896-1.28-0.446-1.657 2.473-1.476 2.258 1.722 0.619-1.491 0.955 1.299 1.186-1.141-1.483-5.572-0.453 2.28-1.05 0.601-0.589-1.137-0.257 1.707-2.525-1.228 2.616-1.026 0.438-2.881-4.715-8.444 3.493-0.735" fill="#FFF" stroke-linecap="square" stroke-linejoin="bevel" stroke-width=".85">
<title>Manggarai Barat</title>
</path>
<path class="Kab16 _data9" d="m102.77 167.64 0.562 1.095-1.562 0.593-0.483-0.959 1.483-0.729" fill="#FFF" stroke-linecap="square" stroke-linejoin="bevel" stroke-width=".85">
<title>Manggarai Barat</title>
</path>
<path class="Kab16 _data9" d="m136.6 161.32-0.427 1.684-3.314-0.755 3.741-0.929" fill="#FFF" stroke-linecap="square" stroke-linejoin="bevel" stroke-width=".85">
<title>Manggarai Barat</title>
</path>
<path class="Kab16 _data9" d="m130.17 163.01 1.401 0.339-2.262 0.064 0.861-0.403" fill="#FFF" stroke-linecap="square" stroke-linejoin="bevel" stroke-width=".85">
<title>Manggarai Barat</title>
</path>
<path class="Kab16 _data9" d="m129.24 157.6 1.008 0.431-1.396 1.393 0.388-1.824" fill="#FFF" stroke-linecap="square" stroke-linejoin="bevel" stroke-width=".85">
<title>Manggarai Barat</title>
</path>
<path class="Kab16 _data9" d="m147.37 153.27 1.42 1.435-2.469 0.016 1.049-1.451" fill="#FFF" stroke-linecap="square" stroke-linejoin="bevel" stroke-width=".85">
<title>Manggarai Barat</title>
</path>
<path class="Kab16 _data9" d="m125.08 154.96 0.88 0.846-1.794 2.103 0.604 3.141-1.975-5.417 1.767 0.479 0.518-1.152" fill="#FFF" stroke-linecap="square" stroke-linejoin="bevel" stroke-width=".85">
<title>Manggarai Barat</title>
</path>
<path class="Kab16 _data9" d="m109.78 155.46 1.336 0.672-1.453 0.445 0.117-1.117" fill="#FFF" stroke-linecap="square" stroke-linejoin="bevel" stroke-width=".85">
<title>Manggarai Barat</title>
</path>
<path class="Kab16 _data9" d="m121.73 151.27 0.352 1.381-1.238 0.491 0.886-1.872" fill="#FFF" stroke-linecap="square" stroke-linejoin="bevel" stroke-width=".85">
<title>Manggarai Barat</title>
</path>
<path class="Kab16 _data9" d="m159.65 147.28-1.718 0.279 0.555-1.299 1.163 1.02" fill="#FFF" stroke-linecap="square" stroke-linejoin="bevel" stroke-width=".85">
<title>Manggarai Barat</title>
</path>
<path class="Kab16 _data9" d="m133.02 151.44-0.86 1.245-0.914-1.087 1.774-0.158" fill="#FFF" stroke-linecap="square" stroke-linejoin="bevel" stroke-width=".85">
<title>Manggarai Barat</title>
</path>
<path class="Kab16 _data9" d="m159.95 147.02 1.737 0.219-0.771 1.106-0.966-1.325" fill="#FFF" stroke-linecap="square" stroke-linejoin="bevel" stroke-width=".85">
<title>Manggarai Barat</title>
</path>
<path class="Kab16 _data9" d="m112.01 140.17 0.091 1.182-2.416-0.196-1.306 1.419 0.324-2.386 3.307-0.019" fill="#FFF" stroke-linecap="square" stroke-linejoin="bevel" stroke-width=".85">
<title>Manggarai Barat</title>
</path>
<path class="Kab16 _data9" d="m108.46 142.98 0.679 1.022-2.151 1.661-0.283-1.499 1.755-1.184" fill="#FFF" stroke-linecap="square" stroke-linejoin="bevel" stroke-width=".85">
<title>Manggarai Barat</title>
</path>
<path class="Kab16 _data9" d="m90.306 137.26 2.865 4.153-1.072 1.937 0.581 2.778 2.122 1.015 2.05-1.188 1.997 2.529 3.341-1.982 1.457 2.552 2.96-3.147-0.453 3.408 2.25-2.487 1.457 0.891-0.234 7.327-1.676-3.114-1.857 2.691 1.854 3.511-0.068 6.229 2.507 1.465-9.539 1.178 1.079-3.424-3.337-2.34-4.367 6.315-4.595 0.162 2.035 3.681 4.934-2.295-2.408 3.023 0.905 1.499-1.732-0.275 0.238 2.212-3.383-0.684-3.982 4.727 0.275 1.503 2.39 0.328-0.607 2.2 1.887 0.548-1.804 3.276 2.144 0.944-1.74 1.291 0.619 1.763 3.375-1.329-4.727 2.394-6.417-4.994-2.571 0.215-2.442 2.469 0.722-2.091-1.71-1.39 1.88-0.192 0.966-4.104 2.839-0.694 0.918-7.09-2.021-1.185-0.049-3.017-4.175 1.438 2.597-5.146-2.529-2.646 2.624-2.114 0.121-2.317 1.627 0.77 2.091-2.34 2.043 0.237-0.4-3.752 2.714-0.835-0.793-2.099-3.408-1.774 4.379-2.276 1.91 0.348-3.862-3.258-1.079-3.915 0.846-1.147 4.356 1.661-0.212-3.571 1.294-0.456" fill="#FFF" stroke-linecap="square" stroke-linejoin="bevel" stroke-width=".85">
<title>Manggarai Barat</title>
</path>
<path class="Kab16 _data9" d="m205.1 121.97 4.67 1.846-3.571 0.771-3.692-1.54 2.593-1.077" fill="#FFF" stroke-linecap="square" stroke-linejoin="bevel" stroke-width=".85">
<title>Manggarai Barat</title>
</path>
<path class="Kab16 _data9" d="m188.85 125.45 0.173 1.518-2.898 0.698 0.992-3.47 1.733 1.254" fill="#FFF" stroke-linecap="square" stroke-linejoin="bevel" stroke-width=".85">
<title>Manggarai Barat</title>
</path>
<path class="Kab16 _data9" d="m158.96 128.89 3.356 0.057-1.967 3.723-4.84-2.624 0.238-1.253 3.213 0.097" fill="#FFF" stroke-linecap="square" stroke-linejoin="bevel" stroke-width=".85">
<title>Manggarai Barat</title>
</path>
<path class="Kab16 _data9" d="m115.01 171.99 0.136 4.893-1.937 1.117-1.971-1.985-3.608 1.868-0.555 1.786 1.611 2.722-0.943 0.434-1.665-3.631-1.479 0.86-0.91-1.665 0.914-1.049 2.186-0.352 0.868-1.623 1.756 0.914 1.2-3.115 4.397-1.174" fill="#FFF" stroke-linecap="square" stroke-linejoin="bevel" stroke-width=".85">
<title>Manggarai Barat</title>
</path>
<path class="Kab16 _data9" d="m136.91 148.5 0.864 1.242-2.469 0.774-0.597 2.137 0.03-3.609 2.172-0.544" fill="#FFF" stroke-linecap="square" stroke-linejoin="bevel" stroke-width=".85">
<title>Manggarai Barat</title>
</path>
<path class="Kab16 _data9" d="m145.03 178.39 1.445 1.59-1.608 0.396 0.163-1.986" fill="#FFF" stroke-linecap="square" stroke-linejoin="bevel" stroke-width=".85">
<title>Manggarai Barat</title>
</path>
<path class="Kab16 _data9" d="m84.893 191.32 0.891 3.484-1.926-1.646 1.035-1.838" fill="#FFF" stroke-linecap="square" stroke-linejoin="bevel" stroke-width=".85">
<title>Manggarai Barat</title>
</path>
<path class="Kab16 _data9" d="m146.72 199.94 2.854 1.095-0.808 3.598-1.483 0.668-3.235-1.253 0.124-2.009 2.548-2.099" fill="#FFF" stroke-linecap="square" stroke-linejoin="bevel" stroke-width=".85">
<title>Manggarai Barat</title>
</path>
<path class="Kab15 _data13" d="m753.21 523.46 0.283 1.473-3.952 1.959-1.022 2.902-7.841 2.276-1.099 2.809-1.619 0.106 1.128 4.503-2.59 3.854-1.215 5.176-2.537-1.76-3.243 2.998-4.703-3.371-4.949-0.295-5.138 2.756-2.22 4.314-3.27-1.547-2.147 2.74-1.038-1.382-6.289 2.046-3.065-1.521-4.903 1.964-3.379 3.896 2.653 1.299 1.027 2.502-3.624-1.895-6.505 3.571-0.381-2.537-1.574 1.926 0.196-1.778-2.11-0.105-4.515 1.208-0.718 3.224-1.937 1.182-4.25-4.055-0.186-4.446 1.752-4.53-1.2-6.248-3.515-4.806 1.079-3.511 4.651 1.016-0.528-2.348 4.141-2.631 6.811-0.612 5.919-1.864 0.166-1.348 2.39 1.661 5.7-0.699 2.397-1.767 4.401 0.473 1.404-1.654 2.4 0.767 3.217-4.5 2.046-0.366-0.374-1.348 2.745-1.105 1.109-2.602 2.582-0.219-0.079-1.453 1.295 8e-3 2.272-3.118 3.397 1.585 4.935-2.691 2.279-2.948 0.649-4.462 2.058-0.412 4.096 2.484 5.024 0.019 8.562-2.182 0.539-2.865-6.356 0.528-3.65 4.01-1.726-0.027-3.503-1.079-1.906-2.892 3.458-2.529 5.318-7.606 3.349-1.408 0.593 0.88 6.663-2.926 2.212-2.446 5.194-1.378-0.789-1.42 1.85-2.137-1.178-2.838 1.876-1.635 4.285 4.104 0.902 2.615 2.699 0.299-3.65-0.136-3.734 2.888-0.879 2.374 1.684-1.506-0.034 1.642 0.649-1.166 1.502 1.566-1.544 0.706-0.079 2.465-1.604 1.661-0.939-1.465-3.134 3.605 0.732 1.635 1.899-0.499-0.026 1.578 1.151-1.585 0.731 2.74-2.57 2.574-4.443 0.544 2.065 2.031 5.964-0.279 2.598 2.095 2.031-0.068 1.615 2.79 0.147 5.376-3.379 1.661 0.234 2.106-1.537 1.548-1.166-1.035-2.148 1.582-2.736-1.631-2.854 0.955-1.963-1.623-1.462 1.04" fill="#FFF" stroke-linecap="square" stroke-linejoin="bevel" stroke-width=".85">
<title>Rote Ndao</title>
</path>
<path class="Kab15 _data13" d="m708.07 555.72-0.03 0.939-0.975-1.374 1.005 0.435" fill="#FFF" stroke-linecap="square" stroke-linejoin="bevel" stroke-width=".85">
<title>Rote Ndao</title>
</path>
<path class="Kab15 _data13" d="m689.9 563.52 2.405 0.551-2.673 3.031-4.006-0.358 0.4-3.462 2.092 1.279 1.782-1.041" fill="#FFF" stroke-linecap="square" stroke-linejoin="bevel" stroke-width=".85">
<title>Rote Ndao</title>
</path>
<path class="Kab15 _data13" d="m640.33 543.46 3.055 5.81-7.939-4.666 4.884-1.144" fill="#FFF" stroke-linecap="square" stroke-linejoin="bevel" stroke-width=".85">
<title>Rote Ndao</title>
</path>
<path class="Kab15 _data13" d="m652.35 547.6 1.812 0.66-2.45 1.238-0.688-1.125 1.326-0.773" fill="#FFF" stroke-linecap="square" stroke-linejoin="bevel" stroke-width=".85">
<title>Rote Ndao</title>
</path>
<path class="Kab15 _data13" d="m695.74 561.92 1.581 0.261-0.094 1.643-1.752 1.064-2.374-2.321 2.639-0.647" fill="#FFF" stroke-linecap="square" stroke-linejoin="bevel" stroke-width=".85">
<title>Rote Ndao</title>
</path>
<path class="Kab15 _data13" d="m658.27 538.7 2.189 0.204-0.166 1.261-3.915 1.424-2.084-0.631 0.378-1.744 3.598-0.514" fill="#FFF" stroke-linecap="square" stroke-linejoin="bevel" stroke-width=".85">
<title>Rote Ndao</title>
</path>
<path class="Kab15 _data13" d="m765.29 489.85 0.046 1.288-1.016-0.937 0.97-0.351" fill="#FFF" stroke-linecap="square" stroke-linejoin="bevel" stroke-width=".85">
<title>Rote Ndao</title>
</path>
<path class="Kab15 _data13" d="m770.23 490.51 2.484 0.17-0.389 3.243-1.117-0.68-8.509 9.188-1.431-2.802 1.54-0.856 0.536 0.876 0.818-3.043 2.367-1.453 0.479-4.081 3.222-0.562" fill="#FFF" stroke-linecap="square" stroke-linejoin="bevel" stroke-width=".85">
<title>Rote Ndao</title>
</path>
<path class="Kab15 _data13" d="m675.11 572.36 1.767 1.525 0.846 3.525-2.054 1.59-5.21-4.206-0.589-2.499 5.24 0.065" fill="#FFF" stroke-linecap="square" stroke-linejoin="bevel" stroke-width=".85">
<title>Rote Ndao</title>
</path>
<path class="Kab21 _data14" d="m463.26 509.59-1.574 3.012-8.773 3.844-9.479-1.661 6.569-5.508 13.257 0.313" fill="#FFF" stroke-linecap="square" stroke-linejoin="bevel" stroke-width=".85">
<title>Sabu Raijua</title>
</path>
<path class="Kab21 _data14" d="m512.85 505.11-8.335 7.169-6.429 1.336-7.215-3.25-7.949 1.416-1.805-2.05-9.34-4.334 19.887-11.528 5.647-1.99 2.503-9.128 10.212-4.628 9.8 3.922 5.681 0.117 1.76 3.64-2.515 4.397 0.623 5.791-1.872 4.783-4.908 0.061-5.745 4.276" fill="#FFF" stroke-linecap="square" stroke-linejoin="bevel" stroke-width=".85">
<title>Sabu Raijua</title>
</path>
<path class="Kab21 _data14" d="m402.19 547.22 0.883 1.087-2.291-0.66 1.408-0.427" fill="#FFF" stroke-linecap="square" stroke-linejoin="bevel" stroke-width=".85">
<title>Sabu Raijua</title>
</path>
<path class="Kab08 _data15" d="m550.01 158.13 4.085 1.722 9.66 10.249 11.706 3.76 4.874-1.657 1.989-2.4 5.893-1.22 14.836-1.404 4.021 0.978 7.44-10.589 0.075-3.533-3.632-1.582-3.062-4.047 2.122-3.525 5.994-1.329 0.959 1.121 0.562-1.732 2.167 0.431 3.911-6.029 3.681-0.939 0.856-5.236 1.884 1.095 3.806-3.023 4.386 1.479 4.704-0.702-1.189 4.655 1.4 4.341-1.933 3.605 2.299 4.276-3.768 5.98-1.574 7.319-1.237 11.189 0.985 1.623-4.202 0.487-1.951 2.661-2.424-1.087-2.948 2.272-5.077 0.668-3.013 5.994-6.977 3.541-3.741 0.095-1.777 1.857-5.572 8e-3 -2.22 1.891-6.587 0.034-1.118 1.337-5.115-2.009-5.832-0.015-5.504 2.4-7.301-2.151-7.112 1.352-3.59-3.458-10.253-0.03-5.338 2.02-1.54 3.073-3.869 1.49-3.636 4.47-5.994 1.956-1.023-1.744 0.54-6.402-3.737-1.261-0.797 1.71-2.566-1.673-4.281-6.64 5.436-7.124-0.569-4.537 2.827-3.194-1.582-1.581 3.73-1.08-0.809-5.617 1.461-1.669-1.947-2.884 2.238-1.782 1.726-4.126 1.668-0.498 1.435 2.994 3.33-0.363 0.815-1.577 2.789 1.86 1.103-1.559 2.155 0.981 0.981 2.774 1.469-0.559-0.634-2.076 2.684 0.219 6.349 3.676" fill="#FFF" stroke-linecap="square" stroke-linejoin="bevel" stroke-width=".85">
<title>Sikka</title>
</path>
<path class="Kab08 _data15" d="m548.36 82.278-0.109 2.408-4.383 0.441 1.287-2.174 3.205-0.675" fill="#FFF" stroke-linecap="square" stroke-linejoin="bevel" stroke-width=".85">
<title>Sikka</title>
</path>
<path class="Kab08 _data15" d="m613.57 134.63 1.228 3.096-3.032 0.709-0.611-2.404 2.415-1.401" fill="#FFF" stroke-linecap="square" stroke-linejoin="bevel" stroke-width=".85">
<title>Sikka</title>
</path>
<path class="Kab08 _data15" d="m589.66 137.23 6.04 3.352 1.291-2.084 1.265 2.333-1.548 1.518 0.249 3.209-4.469 3.582-5.848-1.649-3.474-4.152-0.071-4.877 6.565-1.232" fill="#FFF" stroke-linecap="square" stroke-linejoin="bevel" stroke-width=".85">
<title>Sikka</title>
</path>
<path class="Kab08 _data15" d="m603.33 142.51 0.494 2.922-2.794-0.648-0.109 1.154-2.639-1.234 5.048-2.194" fill="#FFF" stroke-linecap="square" stroke-linejoin="bevel" stroke-width=".85">
<title>Sikka</title>
</path>
<path class="Kab08 _data15" d="m579.77 122.98 1.386 0.981-2.646 3.023-5.481-0.132 1.586-2.291 2.827 0.275 2.328-1.856" fill="#FFF" stroke-linecap="square" stroke-linejoin="bevel" stroke-width=".85">
<title>Sikka</title>
</path>
<path class="Kab12 _data19" d="m167.19 322.92 3.5-5.142-1.914-1.371-3.205-7.293 2.805-6.281-1.287-2.692-4.96-1.407-2.027-4.625 4.594-3.076 7.6-8.634 3.05 6.821 9.227 11.465 4.609 2.507 2.544 5.526 6.048 6.878 7.493 2.677 9.701-2.937 4.421 3.861 2.677 6.867 0.543 10.532 3.654 9.305 1.186-1.552 7.056 0.732 3.692 4.723-0.676 1.027 8.222-5.372 4.19 0.74-1.038-0.805 0.921-1.038 12.982-3.926 2.39 1.94 4.507 10.249 3.017 1.038 2.918-0.929 3.722 1.985 2.903 4.617 3.401 1.224 1.374 6.296 3.424 3.64 0.797 4.938 8.195 13.719 6.018 3.729 5.794 0.54 11.835 9.128 5.111 8.855-1.279 11.62-3.957 4.812-9.913 4.979-3.141 6.188-9.233 5.854-7.746 0.789-4.628 4.1-3.771-0.271-4.043-2.175-6.078 0.234-3.183 2.816-4.756 1.121-2.163 6.663-3.205 2.601-10.86-8.135-7.041-3.504-7.769 0.329-1.499 1.147-9.003-2.355-4.243 1.721-6.625-4.266-2.529 1.884-9.279-10.638-4.81-0.105 0.306-1.616-6.617-7.274-6.433-0.253 0.514-3.329 2.02-1.106-0.718-3.193-3.99-7.033-8.267-6.647 1.204-2.608-0.74-1.722-3.179 1.125-4.484-1.269-0.015-3.997-3.93 1.321-1.854-1.503 0.445-2.435-1.877-2.159-4.824 1.071-4.681-2.435-4.065 1.362-2.669-4.428-10.325-5.73-1.748-3.179-1.902 0.604-2.061-2.729 8.074 2.072 1.774-0.627 1.008-14.458 2.035-3.669-3.749-3.28-0.257-4.84 3.42-2.918 3.168 1.049 13.159-1.66 1.034-6.392-1.022-1.993 1.57-0.955-1.726-1.736 0.884-0.611-0.797-3.545 2.054-0.646 0.846-3.106 2.001-0.234 0.547-3.699 2.325-3.391 3.282-0.087" fill="#FFF" stroke-linecap="square" stroke-linejoin="bevel" stroke-width=".85">
<title>Sumba Timur</title>
</path>
<path class="Kab12 _data19" d="m203.14 463.75-1.604-0.332 3.371-0.914-1.767 1.246" fill="#FFF" stroke-linecap="square" stroke-linejoin="bevel" stroke-width=".85">
<title>Sumba Timur</title>
</path>
<path class="Kab12 _data19" d="m219.73 458.59 0.121 1.989-2.22 1.133-5.051-0.933 7.15-2.189" fill="#FFF" stroke-linecap="square" stroke-linejoin="bevel" stroke-width=".85">
<title>Sumba Timur</title>
</path>
<path class="Kab09 _data2" d="m470.88 208.82-3.039 1.585 0.2 5.935-3.982 2.616-2.438-2.438 3.005-7.184-0.631-2.076-12.287-7.011-3.782 2.238-22.39-2.657 0.403-8.468-3.582-3.11 0.14-1.781 6.135-7.735 2.476 0.178 2.08-2.847 2.424-0.022 3.711-2.643 6.221-1.008-2.038-2.673 1.604-1.521-0.476-2.291 2.106 1.026 0.664-2.979 1.93-1.431 4.756-0.767-0.166-1.665-2.477-1.615 0.823-3.658 7.014 4.802-1.684-3.103 0.204-5.825 0.717-4.666 1.072 0.805 0.993-2.148 0.615 1.057 1.22-1.136 2.578 1.257-1.283 1.42 0.812 2.038 2.261 0.245 1.321-1.801 2.703 3.775 7.904-2.99 10.597 1.031 0.192 1.438 2.159 0.31 5.263-1.816 2.155-3.072 4.738 2.872 7.146-0.524 3.175-2.261 4.318-6.6 0.676 0.544-2.02 1.74 1.627 0.876-0.393 1.861 4.658-4.568 1.435 1.068 5.546-2.167-0.268 2.968-1.375 0.257 0.729 1.332-1.453-0.498 1.518 1.476-1.695 2.492 0.544 3.125-6.097 7.75 1.956 2.862-1.461 1.668 0.808 5.617-3.729 1.08 1.581 1.582-2.827 3.193 0.57 4.537-5.433 7.029 4.277 6.734 2.566 1.673 0.797-1.71 3.764 1.299-0.566 6.364 1.023 1.744-12.329 4.417-6.357-0.619-4.364 1.215-2.121 2.771-4.338 1.261-1.717 2.11-6.803 2.046-6.867-0.993-3.201-3.11-6.241-2.132" fill="#FFF" stroke-linecap="square" stroke-linejoin="bevel" stroke-width=".85">
<title>Ende</title>
</path>
<path class="Kab08 _data15" d="m476.13 114 3.711 0.86 2.594 4.616-0.68 3.118-2.477 1.79-6.028-0.544-2.627-2.088 1.415-5.73 4.092-2.022" fill="#FFF" stroke-linecap="square" stroke-linejoin="bevel" stroke-width=".85">
<title>Sikka</title>
</path>
<path class="Kab09 _data2" d="m515.54 207.14-2.261 0.253 2.604-1.216-0.343 0.963" fill="#FFF" stroke-linecap="square" stroke-linejoin="bevel" stroke-width=".85">
<title>Ende</title>
</path>
<path class="Kab09 _data2" d="m445.11 210.45 1.064 5.613-3.167 3.16-1.412-3.749 2.491-1.819-0.581-3.59 1.605 0.385" fill="#FFF" stroke-linecap="square" stroke-linejoin="bevel" stroke-width=".85">
<title>Ende</title>
</path>
<path class="Kab14 _data6" d="m793.58 142.27-1.688 2.224 5.006 6.028 0.823 4.288-0.604 1.979-6.405 5.002-4.987-1.476-2.341-3.7 0.163-3.171-2.329-1.317-7.169 3.311-4.221 7.222-5.346 1.562-6.817-3.827-1.695-3.998-4.492-2.246-4.454 3.775-8.551-1.76-3.401 2.662-0.075-3.043-2.317-0.295 0.785-4.141 3.454 0.053 9.936-8.116 7.697-10.808 6.852-2.163 2.627-2.835 6.754-0.427 7.029-5.229-3.156-4.051-6.614-3.885-11.853 2.197 7.595-7.784 3.557-1.245 2.4 2.688 2.001 0.577 0.219-1.524 3.439 1.54 6.828-5.225 7.199-1.03 3.22 0.985 0.774 1.381-2.446 1.507-0.883 4.756-1.673 2.877-2.861 1.559-3.077 4.633 0.59 2.722-1.435 0.902 3.231-1.382 6.658 3.062 5.142-2.046 2.632-4.051-1.269-3.602-2.903-0.313 0.366-3.854 4.927 0.023-0.607 5.084 6.1-4.469-1.457-7.739-3.56-1.265-0.128-3.341 2.272 0.781 5.338-1.132 1.69 1.771-1.415 4.296 6.101 0.962 4.48-3.224-2.442-1.892-0.2-1.808 4.432-0.502 7.909-7.347 2.189-0.354 10.351 5.662 2.197 4.27 1.857-2.982 6.164 0.695 3.5 4.703-1.196 2.48-11.944 3.106-1.424 1.661-7.131-2.121-5.085 2.695-5.077 6.308-1.732 5.18-4.417 4.828-1.291 4.798-2.993 2.729-4.1-0.113 0.773-2.272-1.117-1.593-4.391-0.144-2.095 3.238-8.393 6.08" fill="#FFF" stroke-linecap="square" stroke-linejoin="bevel" stroke-width=".85">
<title>Lembata</title>
</path>
<path class="Kab11 _data8" d="m276.87 149.32-6.135 11.34 2.793 6.414-0.49 6.078-5.466 1.189-4.021 4.831 5.644 7.784 1.204 9.441-0.812 1.363 2.507 6.285-13.783-0.819-6.825 2.016-5.251-1.664-0.517 1.547-4.617 1.604-4.142 3.681-2.657-1.937-3.519 1.627-8.323-2 1.94-2.062-1.193-3.069 3.013-2.944 5.674-1.317-2.023-4.304 3.715-0.985 3.57-5.587 2.043-0.909 1.099-4.202-3.421-4.492-1.154 1.283-1.533-0.502-2.665-3.575 1.483-2.419-1.665-2.058 0.797-4.757 5.134-2.495 2.616-4.134 2.262 2.175 3.005-0.503-1.503-7.558 3.443-1.657 1.389-4.545 1.499-0.51 0.14-4.602 1.532 0.445-1.079-1.136 0.909-2.956-1.483-2.012-3.446 0.992-4.009-0.853-2.145 2.465-1.11-0.627-3.525 2.488-3.812-4.927 1.291-24.307 7.421 0.12 5.35 2.27 7.157-2.387 1.971-6.263 1.582-0.551 2.491 1.423 1.412 6.161 2.518 1.729 4.704-0.31-0.291 3.809-1.868 0.389-0.503 10.97 6.074 4.599 3.677 7.195 1.927 8.222" fill="#FFF" stroke-linecap="square" stroke-linejoin="bevel" stroke-width=".85">
<title>Manggarai</title>
</path>
<path class="Kab11 _data8" d="m234.89 213.84 0.771 4.296-5.356 2.582-2.541-1.514-0.57-1.008 4.36-5.315 3.336 0.959" fill="#FFF" stroke-linecap="square" stroke-linejoin="bevel" stroke-width=".85">
<title>Manggarai</title>
</path>
<path class="Kab20 _data10" d="m291.51 210.38-5.957-6.854-14.235 0.057-1.722-5.821-0.325-10.601-5.711-7.987 4.021-4.832 5.466-1.189 0.494-6.078-2.793-6.414 6.134-11.192-1.933-8.369-3.677-7.195-6.074-4.598 0.635-11.45 1.736 0.087 0.151-3.948 6.243-3.473 5.036 4.786 5.832-0.698 2.175-3.322-2.118-1.804 0.117-2.054 10.578 5.915 1.098 2.827 2.62 0.718 0.144 2.325 2.046 1.095 4.356-0.551 0.188 1.744 2.922 2.117 2.609-0.094 2.329-2.073 3.442 1.578 4.466-1.166 7.853 3.258 4.741-1.412 0.253 3.869 1.619-3.212 4.87 0.543 3.171-1.382 1.635 3.854-1.265 5.032-2.28 1.186-2.778 6.244-0.313 2.419 1.978 2.526-4.715 2.046-2.295-1.099-2.22 3.771-2.782 0.735-1.17 1.88 1.049 3.893 3.911 4.345-2.363 1.669 1.597 3.631 1.801 0.967-0.268 2.072 1.684 2.462-0.736 2.971 1.212 1.103-2.812 8.021-5.225 2.062 2.039 6.568-2.213 2.657 0.34 3.428-0.909 1.59-0.981-0.476-1.778 5.48-2.212 1.031 1.555 1.793-5.345 0.445-0.616 5.599-1.959 2.465-3.446 0.913-8.8-1.883-2.269-1.91-6.561-0.321-3.29-2.319" fill="#FFF" stroke-linecap="square" stroke-linejoin="bevel" stroke-width=".85">
<title>Manggarai Timur</title>
</path>
<path class="Kab17 _data11" d="m377.38 205.14-1.604-5.485-4.756-5.727 1.544-2.175-4e-3 -4.187 1.072 0.374 0.755-2.548 5.806-2.801-3.171-1.608-2.446 0.4-1.521-2.571-3.394-1.479-1.208-1.404-0.147-4.866 9.261-4.621-0.838-1.162 2.449-3.413-0.087-3.446 6.995-6.859-0.053-2.062-3.771-3.778 3.13-3.167-1.14-3.194 3.058-0.479 4.401 4.031 4.673 1.257 4.127-0.842 6.443 3.824 0.352-0.789 6.164 11.227 4.413 2.809 5.979 1.401 2.424 3.487 0.31-1.279 1.819 0.306 5.323-4.387 2.457 0.582 1.604 2.88 2.582-0.438-0.14 3.612 2.276 1.514-1.34 0.993 2.525 4e-3 2.23 2.729-12.748 4.254-0.981 2.076-3.575 0.593-3.25 2.941-3.171 5.563 3.726 4.111-0.399 8.482-4.395-0.804-1.937 1.302-1.653 4.799 0.219 9.215-4.587 4.586-7.342 0.389-5.157-3.616-1.74 0.4-0.324 1.518-1.955-1.442-1.993 1.121-1.771-1.129-4.232 0.892-2.646-1.544-7.581 2.166-4.126-3.967 1.114-3.266 3.159-2.167-1.207-3.136" fill="#FFF" stroke-linecap="square" stroke-linejoin="bevel" stroke-width=".85">
<title>Nagekeo</title>
</path>
<path class="Kab10 _data12" d="m355.05 227.57-12.257-3.922-10.136-8.132-3.816-8.629-2.13-0.985-2.926 1.476-1.615-1.396 2.276-1.424 1.774-5.48 0.981 0.476 0.909-1.59-0.339-3.428 2.2-2.597-1.88-6.999 5.077-1.695 2.812-8.021-1.212-1.103 0.736-2.971-1.684-2.462 0.269-2.072-1.801-0.967-1.597-3.631 2.362-1.669-3.91-4.345-1.042-3.889 1.174-1.872 2.782-0.736 2.22-3.771 2.295 1.099 4.862-2.269-2.121-2.303 0.31-2.42 2.778-6.243 2.279-1.186 0.325-3.715 2.088-1.359-1.691-4.673 6.55 1.121-0.997 3.307-2.321-0.868-0.275 1.103 2.057 2.121 1.643-1.435 2.099 3.658 2.201-0.664 2.283 3.771 6.822-0.573 8.833 3.02 4.768-0.66 3.492 3.069 1.706-0.299 1.163 2.861-3.152 3.5 3.771 3.778 0.053 2.062-6.995 6.859 0.087 3.446-2.45 3.412 0.838 1.163-9.26 4.621 0.147 4.866 1.208 1.404 3.394 1.479 1.521 2.57 2.446-0.399 3.171 1.607-5.806 2.802-0.756 2.548-1.071-0.374 3e-3 4.187-1.544 2.179 4.757 5.727-0.306 1.86 3.027 6.301-3.069 2.62-1.113 3.266 4.039 4.586-10.966 5.051-2.975 2.843-9.375 1.407" fill="#FFF" stroke-linecap="square" stroke-linejoin="bevel" stroke-width=".85">
<title>Ngada</title>
</path>
<path class="Kab10 _data12" d="m356.68 127.26-0.464 2.021 1.801 0.555-3.99 1.012-1.167-2.896 1.786 0.747 2.034-1.439" fill="#FFF" stroke-linecap="square" stroke-linejoin="bevel" stroke-width=".85">
<title>Ngada</title>
</path>
<path class="Kab13 _data16" d="m95.142 346.7-2.495 4.964 7.973 0.17 3.031 1.967-4.832 6.305-0.061 4.092-8.671-1.955-1.394 2.204-5.179 1.054-1.212 4.62-2.578 1.562-2.152-0.486-1.585-3.201-3.972-2.703-5.545 1.046-2.836-3.703-7.803 0.717-6.342-1.854-3.326 1.091-2.355 2.537-1.921-3.009-9.684-2.548-0.974-1.374 3.636-4.225 3.216-1.4 2.424-4.704 3.605-1.593 1.607-0.147 3.292 5.018 3.11 2.155 4.938-1.888 2.793 0.993 2.646-0.918 6.606-10.396 1.619 0.875 2.103-1.838 1.979 0.457 1.275-2.968 6.795-6.149-3.548-3.733 0.396-2.771-3.085-3.632-0.883-8.399 0.902-6.127 2.876-6.138 2.484-1.521 1.299 8e-3 0.358 5.67 7.742 14.764-0.898 1.797 1.827 4.568 9.815-4.761-1.899 10.589-5.919 7.07 1.4 5.051-0.598 2.797" fill="#FFF" stroke-linecap="square" stroke-linejoin="bevel" stroke-width=".85">
<title>Sumba Barat</title>
</path>
<path class="Kab19 _data17" d="m79.54 300.67-3.416 7.398-0.4 4.893 0.925 8.373 3.084 3.632-0.396 2.771 3.549 3.733-6.795 6.149-1.276 2.968-1.978-0.457-2.103 1.838-1.62-0.875-4.968 9.177-3.167 1.857-3.729-0.74-5.206 1.884-3.023-2.125-3.254-4.987-1.646 0.117-3.604 1.593-2.424 4.704-3.217 1.4-3.635 4.225-3.549-0.461-11.17-6.965-6.859-11.544-10.038-8.724 2.616-7.577 8.057-9.634 9.207-5.043 9.939-0.94 10.577-7.172 5.059-0.838 4.595 2.815 5.571-3.345 7.916-2.465 4.621 2.446 11.757 1.919" fill="#FFF" stroke-linecap="square" stroke-linejoin="bevel" stroke-width=".85">
<title>Sumba Barat Daya</title>
</path>
<path class="Kab18 _data18" d="m92.504 325.94-1.979-4.553 0.898-1.797-1.619-1.261-6.301-14.583-0.181-4.59 1.868 0.668 3.865-2.681 4.334-0.615 9.449 3.356 9.527-4.682 7.735-0.872 9.49 6.312 12.877 0.559 1.985 1.902 3.575 0.461 12.133-9.597 1.975 4.769 5.624 2.076 0.366 3.288-2.548 5.017 5.036 9.079-1.348 0.472 0.482 1.416-1.607 0.188-0.386 2.722-3.857 0.019-2.325 3.391-0.548 3.699-2.001 0.234-0.846 3.106-2.054 0.646 0.797 3.545-0.883 0.611 1.725 1.736-1.57 0.955 1.02 1.809-0.774 6.263-13.412 1.975-3.167-1.05-3.515 3.11 0.351 4.647 3.749 3.28-2.035 3.669-1.008 14.459-1.159 0.482-8.626-2.506 2.545-2.371-0.959-1.918-1.619-0.011 0.668-2.375-2.877-2.159-1.944 0.178-0.743 2.612-4.27 1.287-1.193-1.805 1.182 0.144 1.133-2.099-0.755-2.375-4.862 2.394-1.819-2.861-5.312 0.619-1.016-2.382-1.967 2.461-4.428-1.064-0.559-5.243 4.768-6.531-2.971-1.74-5.878 0.445-2.314-1.245 3.134-3.674-1.212-8.509 5.919-7.07 1.899-10.589-9.662 4.747" fill="#FFF" stroke-linecap="square" stroke-linejoin="bevel" stroke-width=".85">
<title>Sumba Tengah</title>
</path>
<path class="Kab03 _data20" d="m980.73 397.48-8.883 5.326-3.48 4.123-6.123 1.378-2.552 3.058-1.186 5.447-3.035 5.36-5.247 5.065-11.771 7.361-10.215 1.404-22.167-1.69 1.023-3.111-1.843-0.211 1.151-1.287-0.69-1.046-1.963 0.476 1.521-2.432-2.778-3.133 1.627-2.337-7.677-7.356-2.129-0.521-1.483-2.911 0.426-1.075 3.398 0.094-6.837-7.157-4.734 0.095-2.064-2.114-0.668-7.01 1.801-7.339-1.197-8.656 1.544-3.602-4.553-8.754 3.447-3.737 0.438-3.877 2.518-1.408 1.035-3.477-4.413-9.199 0.818-3.156-2.03-4.397 5.391-3.104 1.805-2.722 4.639 2.076 1.903-2.072-4.179-8.958-2.858-2.782 0.815-2.062 4.092 0.668 6.833 6.018 1.684-1.125-0.951-3.715 2.058 0.337 6.274 6.953-4.07 2.137 2.039 3.794 1.661-2.938 5.277 1.643 2.23 2.93 4.866 0.332 1.574 3.529 5.678-1.034 1.854 1.827 1.479-1.174 6.655 1.672 2.579-0.978 4.205 4.179 2.072-0.891-0.589 3.624 6.018 1.872 4.19 2.979 2.382-0.464 2.242-2.745 2.582-0.094 3.632-4.591 6.01-0.589 3.133-4.677 1.963-0.216 0.755 4.7 2.359 2.525 6.226 0.219 2.359 1.76 5.239-3.205 3.1-3.786 4.391 0.347 2.17 3.379-1.302 3.141 4.806 3.899-3.93 15.066-0.054 3.816 1.967 1.635 0.087 1.914-8.04 9.895-2.062 5.526-8.932 5.613-4.454 0.993-2.882 4.73" fill="#FFF" stroke-linecap="square" stroke-linejoin="bevel" stroke-width=".85">
<title>Timor Tengah Selatan</title>
</path>
<path class="Kab04 _data21" d="m1008.4 254.42 0.668 5.414 1.054 0.241-3.005 3.885 1.947 0.955-0.185 4.413 2.722 2.752 3.25 11.86-1.898 2.488 0.688 3.042-1.39 2.62-6.678 3.114 1.407 3.126-1.071 2.084-5.817 2.805 0.581 2.189 2.685 1.461-1.058 8.814-2.197-0.434-0.245 2.366-2.477 0.103-2.718 3.001-2.691 0.656 1.358 1.703 1.574-0.635 3.152 8.634-3.209 0.328-2.099-1.378-3.602 1.155-1.842 4.277-5.157-1.004-5.152 1.072-3.134 4.677-6.492 0.838-2.058 3.5-3.941 1.095-2.125 2.665-2.231 0.385-4.19-2.979-6.017-1.872 0.589-3.624-2.072 0.891-4.206-4.179-2.578 0.978-6.655-1.672-1.479 1.174-1.854-1.827-5.678 1.034-1.574-3.529-4.866-0.332-2.231-2.93-5.277-1.643-1.661 2.938-2.038-3.794 4.081-2.069-2.511-3.404-7.776-5.38-2.774-3.888-2.979 0.113-0.378-1.431-8.505-5.149 0.483-1.431 4.096 0.109 2.442 3.394 2.722 0.136 2.096-1.419 1.026-4.202 8.403-4.938 7.485 5.146 1.823 2.861 0.449 3.719 2.187 2.933-1.518 8.86 3.189-0.038 0.801-1.574 2.525 0.404 4.45-2.235 2.163 0.412 0.302-3.62 1.442-0.888-2.816-4.058 0.227-1.967 4.142-2.005-1.469-1.718 2.56-0.898-1.076-3.511 0.989-3.318 1.684 0.631 3.371-4.047 4.972-0.54 0.302-3.307 3.844-2.567-1.386-5.768 1.778-2.744 0.622-7.143 2.466-1.782-1.178-3.99 9.294 2.062 1.435-1.756 3.847 0.272 1.971-2.296 7.398-1.876 4.021-4.296 5.293-1.759 2.785-4.13 1.869-6.904 3.096-0.506 2.442 1.389 9.565-6.813 2.027 0.585 1.2 5.5 2.216 2.28-0.042 7.658" fill="#FFF" stroke-linecap="square" stroke-linejoin="bevel" stroke-width=".85">
<title>Timor Tengah Utara</title>
</path>
<path class="Kab60 _data4" d="m790.25 435.81 3.582-0.03 10.313-5.353 4.345 0.895 3.851-3.363 1.567 5.364-1.216 1.827 2.129 3.956-0.306 1.521-6.414 3.507 2.582 1.106 0.306 1.431-4.382-0.57-1.521 1.219-0.612 1.521 1.827 2.436 0.914 5.474-6.999 2.435-2.435-2.736-1.216-6.086 2.435-3.043-2.74-0.306-5.474 5.783-1.22-7.912-2.193-1.411 0.479-6.021 2.398-1.644" fill="#FFF" stroke-linecap="square" stroke-linejoin="bevel" stroke-width=".85">
<title>Kota Kupang</title>
</path>
<path class="Kab22 _data7" d="m1053.4 302.3-5.016-5.459 0.083-5.391-3.719-1.475-4.232-3.636-0.834 2.62-2.748 2.873v1.249l-0.16286 2.1408-2.0771 3.5971-3.254-0.59473-7.954-2.2455-5.346-0.18005-1.7733 2.1345-3.1869-1.3972-0.37566-1.7988-4.3658-1.5896-2.8854 2.0626 1.408 3.126-1.299 2.345-5.591 2.544 0.581 2.189 2.685 1.461-1.058 8.814-2.196-0.433-0.246 2.366-2.477 0.103-2.718 3-2.691 0.657 1.359 1.703 1.575-0.635 3.151 8.634-3.208 0.328-2.1-1.378-3.6 1.155-1.843 4.278-8.15-0.322-0.687 1.979 1.646 3.741 1.959 1.68 6.225 0.219 0.559 1.438 2.234 0.291 7.905-6.961 4.47 0.422 2.091 3.304-1.302 3.14 4.806 3.9-3.931 15.066-0.053 3.817 2.213 3.409 9.264-12.228 5.262-4.099 7.675-2.572 7.504-7.054 1.544-12.383-0.837-1.857 1.226 0.083 5.644-8.346 10.189-7.853-1.563-3.333 0.222-8.648 2e-5 -1.2e-4z" fill="#FFF" stroke-linecap="square" stroke-linejoin="bevel" stroke-width=".85px">
<title>Malaka</title>
</path>
<path class="Kab05 _data1" d="m1070 259.68-1.094-3.495 1.509-0.762-1.038-2.236 2.427-5.481-0.14-7.621-6.583-5.546-2.129-0.162-4.08-4.802-1.662 1.329-0.574 4.217-5.247 4.729-7.92 2.541-3.431 3.73-7.528-0.91-0.959-1.751-2.102-0.235 0.295-1.725-1.756-1.577 0.385-5.573 3.054-4.809-1.321-1.729-3.994 0.469-7.372 3.522-3.487 1.681-1.501 3.124-2.039-1.763-2.803 0.615-1.994 2.269-1.318-1.106-0.542 2.306 1.084 5.453 2.36 2.418-0.285 7.688 0.772 5.348 1.096 0.219-3.004 3.907 1.947 0.955-0.185 4.413 2.564 2.453 2.211 7.233 1.197 4.926-0.784 0.888-0.98498 1.7487 0.37809 3.1259-1.4971 2.3712-3.6213 1.8755 2.3123 0.31219 1.9681 0.28102 0.23454 3.2011 2.4908-0.14836 1.8662 0.85102 1.5629-3.1223 4.1863 0.87516 1.9988 1.3118 2.2798-0.01559 4.2786 0.98378 3.5134 0.27328 1.257-2.6741 0.88225-1.7996-0.46845-2.2017 2.9978-3.1228 0.834-2.62-1.778-1.526 0.419-4.559-2.608-3.7 0.192-8.622 3.907-1.537 1.518-2.291 4.621 0.952 1.929-0.99 3.767 1.121 3.828 4.527 6.395-4.704 6.953 0.113 3.148-3.22-2.789-2.22-1e-5 -1e-5 -4e-5 -1.9e-4z" fill="#FFF" stroke-linecap="square" stroke-linejoin="bevel" stroke-width=".85">
<title>Belu</title>
</path>
<g fill="#E0E0E0" stroke-width="1.4173">
<path d="m950.4 265.24 1.178 3.99-2.465 1.782-0.623 7.143-1.777 2.744 1.386 5.768-3.844 2.567-0.302 3.307-4.972 0.54-3.371 4.048-1.685-0.632-0.988 3.318 1.076 3.511-2.561 0.898 1.468 1.718-4.141 2.005-0.227 1.967 2.815 4.059-1.441 0.888-0.303 3.62-2.163-0.412-4.45 2.235-2.525-0.404-0.8 1.574-3.19 0.038 1.519-8.86-2.187-2.933-0.449-3.72-1.822-2.86-7.459-5.138-8.431 4.93 0.634 1.005-1.793 3.333-4.495 1.224-2.602-3.458-3.851 0.352-8.988-10.611-0.117-1.793 8.942-2.103 2.375-2.304 9.139-3.4 3.849-6.974 6.225-2.118 5.308-0.123 1.457-1.877 6.58-2.311 1.394-2.269 10.419-0.117 9.702-5.285 8.556 1.138"/>
<path d="m1106.4 281.32v-120.34l-13.562 4.03-2.22 2.22-13.125 0.375-13.062 4.782-3.781 2.562-3.688 7.344 0.094 4.781-1.438 3.531 0.72 10.5-2.562 2.438-6.656 2.625-5.625 5.531-1 5.031-4.688 9.344-4.281 2.156 0.374 1.532-3.031 4.812-0.405 5.594 1.75 1.562-0.281 1.719 2.094 0.25 0.5 1.562 8 1.094 3.438-3.719 9.312-3.5 3.875-3.845 0.656-4.344 2.25-0.844 3.375 4.5 2.125 0.156 6.594 5.594 0.125 7.594-2.406 5.469 1.031 2.25-1.5 0.75 1.094 3.5 2.75 2.562-3.125 2.875-6.938-0.125-6.406 4.719-3.812-4.531-10.345-1.094-1.5 2.312-3.905 1.53-0.188 8.625 2.594 3.688-0.405 4.562 6 5.156 3.719 1.469-0.094 5.406 5.03 5.469-0.219 8.625 1.562 3.345 8.469-6.938 12.312-1.594 7.438-6.562 1.719-3.312 2.938 0.125 3.594-5.312 12.469-8.688 2.247-0.903v-5e-3z"/>
</g>
<line x1="230" x2="230" y1="391" y2="488" stroke-linecap="round" stroke-linejoin="bevel" stroke-width=".85"/>
<line x1="240" x2="230" y1="488" y2="488" stroke-linecap="round" stroke-linejoin="bevel" stroke-width=".85"/>
<line x1="131" x2="131" y1="319" y2="254" stroke-linecap="round" stroke-linejoin="bevel" stroke-width=".85"/>
<line x1="21" x2="22" y1="321" y2="254" stroke-linecap="round" stroke-linejoin="bevel" stroke-width=".85"/>
<line x1="71" x2="71" y1="354" y2="423" stroke-linecap="round" stroke-linejoin="bevel" stroke-width=".85"/>
<line x1="176" x2="176" y1="168" y2="82" stroke-linecap="round" stroke-linejoin="bevel" stroke-width=".85"/>
<line x1="250" x2="250" y1="187" y2="254" stroke-linecap="round" stroke-linejoin="bevel" stroke-width=".85"/>
<line x1="303" x2="303" y1="141" y2="82" stroke-linecap="round" stroke-linejoin="bevel" stroke-width=".85"/>
<line x1="351" x2="351" y1="195" y2="254" stroke-linecap="round" stroke-linejoin="bevel" stroke-width=".85"/>
<line x1="406" x2="406" y1="160" y2="82" stroke-linecap="round" stroke-linejoin="bevel" stroke-width=".85"/>
<line x1="477" x2="477" y1="196" y2="254" stroke-linecap="round" stroke-linejoin="bevel" stroke-width=".85"/>
<line x1="557" x2="557" y1="176" y2="82" stroke-linecap="round" stroke-linejoin="bevel" stroke-width=".85"/>
<line x1="693" x2="693" y1="134" y2="217" stroke-linecap="round" stroke-linejoin="bevel" stroke-width=".85"/>
<line x1="789" x2="789" y1="135" y2="69" stroke-linecap="round" stroke-linejoin="bevel" stroke-width=".85"/>
<line x1="967" x2="967" y1="118" y2="56" stroke-linecap="round" stroke-linejoin="bevel" stroke-width=".85"/>
<line x1="801" x2="801" y1="444" y2="490" stroke-linecap="round" stroke-linejoin="bevel" stroke-width=".85"/>
<line x1="848" x2="848" y1="411" y2="261" stroke-linecap="round" stroke-linejoin="bevel" stroke-width=".85"/>
<line x1="681" x2="681" y1="546" y2="477" stroke-linecap="round" stroke-linejoin="bevel" stroke-width=".85"/>
<line x1="489" x2="489" y1="504" y2="439" stroke-linecap="round" stroke-linejoin="bevel" stroke-width=".85"/>
<line x1="949" x2="949" y1="386" y2="435" stroke-linecap="round" stroke-linejoin="bevel" stroke-width=".85"/>
<line x1="955" x2="955" y1="300" y2="217" stroke-linecap="round" stroke-linejoin="bevel" stroke-width=".85"/>
<line x1="1024" x2="1024" y1="256" y2="181" stroke-linecap="round" stroke-linejoin="bevel" stroke-width=".85"/>
<line x1="1029" x2="1029" y1="321" y2="390" stroke-linecap="round" stroke-linejoin="bevel" stroke-width=".85"/>
<line x1="80" x2="71" y1="423" y2="423" stroke-width=".85"/>
<g class="label_data19">
<rect x="239" y="476" width="50" height="22" rx="4" fill="#FFF" stroke-width=".85"/>
<text x="243" y="492" fill="#000" font-size="14" stroke-width="0" xml:space="preserve">. . .</text>
</g>
<g class="label_data16">
<rect x="80" y="412" width="50" height="22" rx="4" fill="#FFF" stroke-width=".85"/>
<text x="84" y="428" fill="#000" font-size="14" stroke-width="0" xml:space="preserve">. . .</text>
</g>
<line x1="31" x2="22" y1="254" y2="254" stroke-width=".85"/>
<g class="label_data17">
<rect x="31" y="243" width="50" height="22" rx="4" fill="#FFF" stroke-width=".85"/>
<text x="35" y="259" fill="#000" font-size="14" stroke-width="0" xml:space="preserve">. . .</text>
</g>
<line x1="140" x2="131" y1="254" y2="254" stroke-width=".85"/>
<g class="label_data18">
<rect x="140" y="243" width="50" height="22" rx="4" fill="#FFF" stroke-width=".85"/>
<text x="144" y="259" fill="#000" font-size="14" stroke-width="0" xml:space="preserve">. . .</text>
</g>
<line x1="185" x2="176" y1="82" y2="82" stroke-width=".85"/>
<g class="label_data9">
<rect x="185" y="71" width="50" height="22" rx="4" fill="#FFF" stroke-width=".85"/>
<text x="189" y="87" fill="#000" font-size="14" stroke-width="0" xml:space="preserve">. . .</text>
</g>
<line x1="259" x2="250" y1="254" y2="254" stroke-width=".85"/>
<g class="label_data8">
<rect x="259" y="243" width="50" height="22" rx="4" fill="#FFF" stroke-width=".85"/>
<text x="263" y="259" fill="#000" font-size="14" stroke-width="0" xml:space="preserve">. . .</text>
</g>
<line x1="360" x2="351" y1="254" y2="254" stroke-width=".85"/>
<g class="label_data12">
<rect x="360" y="243" width="50" height="22" rx="4" fill="#FFF" stroke-width=".85"/>
<text x="364" y="259" fill="#000" font-size="14" stroke-width="0" xml:space="preserve">. . .</text>
</g>
<line x1="487" x2="477" y1="254" y2="254" stroke-width=".85"/>
<g class="label_data2">
<rect x="487" y="243" width="50" height="22" rx="4" fill="#FFF" stroke-width=".85"/>
<text x="491" y="259" fill="#000" font-size="14" stroke-width="0" xml:space="preserve">. . .</text>
</g>
<line x1="312" x2="303" y1="82" y2="82" stroke-width=".85"/>
<g class="label_data10">
<rect x="312" y="71" width="50" height="22" rx="4" fill="#FFF" stroke-width=".85"/>
<text x="316" y="87" fill="#000" font-size="14" stroke-width="0" xml:space="preserve">. . .</text>
</g>
<line x1="415" x2="406" y1="82" y2="82" stroke-width=".85"/>
<g class="label_data11">
<rect x="415" y="71" width="50" height="22" rx="4" fill="#FFF" stroke-width=".85"/>
<text x="419" y="87" fill="#000" font-size="14" stroke-width="0" xml:space="preserve">. . .</text>
</g>
<line x1="566" x2="557" y1="82" y2="82" stroke-width=".85"/>
<g class="label_data15">
<rect x="566" y="71" width="50" height="22" rx="4" fill="#FFF" stroke-width=".85"/>
<text x="570" y="87" fill="#000" font-size="14" stroke-width="0" xml:space="preserve">. . .</text>
</g>
<line x1="702" x2="693" y1="217" y2="217" stroke-width=".85"/>
<g class="label_data3">
<rect x="702" y="206" width="50" height="22" rx="4" fill="#FFF" stroke-width=".85"/>
<text x="706" y="222" fill="#000" font-size="14" stroke-width="0" xml:space="preserve">. . .</text>
</g>
<line x1="798" x2="789" y1="69" y2="69" stroke-width=".85"/>
<g class="label_data6">
<rect x="798" y="58" width="50" height="22" rx="4" fill="#FFF" stroke-width=".85"/>
<text x="802" y="74" fill="#000" font-size="14" stroke-width="0" xml:space="preserve">. . .</text>
</g>
<line x1="976" x2="967" y1="56" y2="56" stroke-width=".85"/>
<g class="label_data0">
<rect x="976" y="45" width="50" height="22" rx="4" fill="#FFF" stroke-width=".85"/>
<text x="980" y="61" fill="#000" font-size="14" stroke-width="0" xml:space="preserve">. . .</text>
</g>
<line x1="965" x2="955" y1="217" y2="217" stroke-width=".85"/>
<g class="label_data21">
<rect x="965" y="206" width="50" height="22" rx="4" fill="#FFF" stroke-width=".85"/>
<text x="969" y="222" fill="#000" font-size="14" stroke-width="0" xml:space="preserve">. . .</text>
</g>
<line x1="1033" x2="1024" y1="181" y2="181" stroke-width=".85"/>
<g class="label_data1">
<rect x="1033" y="170" width="50" height="22" rx="4" fill="#FFF" stroke-width=".85"/>
<text x="1037" y="186" fill="#000" font-size="14" stroke-width="0" xml:space="preserve">. . .</text>
</g>
<line x1="959" x2="949" y1="435" y2="435" stroke-width=".85"/>
<g class="label_data20">
<rect x="959" y="425" width="50" height="22" rx="4" fill="#FFF" stroke-width=".85"/>
<text x="963" y="441" fill="#000" font-size="14" stroke-width="0" xml:space="preserve">. . .</text>
</g>
<line x1="858" x2="848" y1="261" y2="261" stroke-width=".85"/>
<g class="label_data5">
<rect x="858" y="251" width="50" height="22" rx="4" fill="#FFF" stroke-width=".85"/>
<text x="862" y="267" fill="#000" font-size="14" stroke-width="0" xml:space="preserve">. . .</text>
</g>
<line x1="1039" x2="1029" y1="390" y2="390" stroke-width=".85"/>
<g class="label_data7">
<rect x="1039" y="380" width="50" height="22" rx="4" fill="#FFF" stroke-width=".85"/>
<text x="1043" y="396" fill="#000" font-size="14" stroke-width="0" xml:space="preserve">. . .</text>
</g>
<line x1="811" x2="801" y1="490" y2="490" stroke-width=".85"/>
<g class="label_data4">
<rect x="811" y="480" width="50" height="22" rx="4" fill="#FFF" stroke-width=".85"/>
<text x="815" y="496" fill="#000" font-size="14" stroke-width="0" xml:space="preserve">. . .</text>
</g>
<line x1="691" x2="681" y1="477" y2="477" stroke-width=".85"/>
<g class="label_data13">
<rect x="691" y="467" width="50" height="22" rx="4" fill="#FFF" stroke-width=".85"/>
<text x="695" y="483" fill="#000" font-size="14" stroke-width="0" xml:space="preserve">. . .</text>
</g>
<line x1="499" x2="489" y1="439" y2="439" stroke-width=".85"/>
<g class="label_data14">
<rect x="499" y="429" width="50" height="22" rx="4" fill="#FFF" stroke-width=".85"/>
<text x="503" y="445" fill="#000" font-size="14" stroke-width="0" xml:space="preserve">. . .</text>
</g>
<text x="239" y="473" fill="#000" font-size="8" stroke-width="0" xml:space="preserve">Kab. Sumba Timur</text>
<text x="80" y="409" fill="#000" font-size="8" stroke-width="0" xml:space="preserve">Kab. Sumba Barat</text>
<text x="140" y="240" fill="#000" font-size="8" stroke-width="0" xml:space="preserve">Kab. Sumba Tengah</text>
<text x="31" y="240" fill="#000" font-size="8" stroke-width="0" xml:space="preserve">Kab. Sumba Barat Daya</text>
<text x="259" y="240" fill="#000" font-size="8" stroke-width="0" xml:space="preserve">Kab. Manggarai</text>
<text x="360" y="240" fill="#000" font-size="8" stroke-width="0" xml:space="preserve">Kab. Ngada</text>
<text x="487" y="240" fill="#000" font-size="8" stroke-width="0" xml:space="preserve">Kab. Ende</text>
<text x="185" y="68" fill="#000" font-size="8" stroke-width="0" xml:space="preserve">Kab. Manggarai Barat</text>
<text x="312" y="68" fill="#000" font-size="8" stroke-width="0" xml:space="preserve">Kab. Manggarai Timur</text>
<text x="415" y="68" fill="#000" font-size="8" stroke-width="0" xml:space="preserve">Kab. Nagekeo</text>
<text x="566" y="68" fill="#000" font-size="8" stroke-width="0" xml:space="preserve">Kab. Sikka</text>
<text x="702" y="203" fill="#000" font-size="8" stroke-width="0" xml:space="preserve">Kab. Flores Timur</text>
<text x="798" y="55" fill="#000" font-size="8" stroke-width="0" xml:space="preserve">Kab. Lembata</text>
<text x="976" y="42" fill="#000" font-size="8" stroke-width="0" xml:space="preserve">Kab. Alor</text>
<text x="1033" y="167" fill="#000" font-size="8" stroke-width="0" xml:space="preserve">Kab. Belu</text>
<text x="965" y="203" fill="#000" font-size="8" stroke-width="0" xml:space="preserve">Kab. TTU</text>
<text x="1039" y="377" fill="#000" font-size="8" stroke-width="0" xml:space="preserve">Kab. Malaka</text>
<text x="959" y="422" fill="#000" font-size="8" stroke-width="0" xml:space="preserve">Kab. TTS</text>
<text x="858" y="248" fill="#000" font-size="8" stroke-width="0" xml:space="preserve">Kab. Kupang</text>
<text x="811" y="477" fill="#000" font-size="8" stroke-width="0" xml:space="preserve">Kota Kupang</text>
<text x="691" y="464" fill="#000" font-size="8" stroke-width="0" xml:space="preserve">Kab. Rote Ndao</text>
<text x="499" y="426" fill="#000" font-size="8" stroke-width="0" xml:space="preserve">Kab. Sabu Raijua</text>
<text x="50%" y="50%" fill="#b8daff" font-size="32" stroke-width="0" xml:space="preserve" dominant-baseline="middle" text-anchor="middle">jollyfrankle.github.io</text>
<text x="50%" y="52.7%" fill="#b8daff" font-size="10" stroke-width="0" xml:space="preserve" dominant-baseline="middle" text-anchor="middle">Peta diadaptasi dari Wikipedia</text>
<text x="50%" y="56%" fill="#004085" font-size="14" stroke-width="0" xml:space="preserve" dominant-baseline="middle" text-anchor="middle">Laut Sawu</text>
</g>
</svg>
